<?xml version="1.0" encoding="UTF-8"?>
<svg id="Layer_1" xmlns="http://www.w3.org/2000/svg" version="1.1" viewBox="0 0 248.9 259">
  <!-- Generator: Adobe Illustrator 30.6.0, SVG Export Plug-In . SVG Version: 2.1.4 Build 109)  -->
  <defs>
    <style>
      .st0 {
        fill: #fff;
      }
    </style>
  </defs>
  <path class="st0" d="M241,12.3c.2.1.2.5,0,.5-7.4.8-11.7,4.9-12.8,12.3,0,.2-.2.3-.4.3s-.4-.1-.4-.3c-1.1-7-5.2-11.2-12.3-12.4-.2,0-.2-.4,0-.4,7.1-1.3,11.3-5.3,12.5-12.1,0,0,.1-.2.2-.2s.2,0,.2.2c1,5.9,4.3,9.7,10.1,11.5,1.1.3,2.1.3,2.9.7h0Z"/>
  <path class="st0" d="M196.9,6.2c0-.2.4-.3.4,0,.9,4.8,1.8,8.6,3.4,11.8,4.6,9.4,12.2,15.2,22.7,17.6,1.6.3,4.1.3,5.6.9.3.1.2.7-.1.7-13.4.5-25.3,8.7-29.4,21.7-1,3.1-1.7,6-2.2,8.9,0,.3-.5.3-.6,0-.4-2-.9-5.8-1.7-8.2-4.7-13.4-14.3-20.9-28.9-22.5-.2,0-.4-.2-.4-.5h0c0-.3.2-.5.4-.5,5.2-.3,10.2-1.8,14.9-4.6,7.6-4.5,12.4-11.1,14.6-19.7.5-1.9.9-3.8,1.2-5.8h0Z"/>
  <path class="st0" d="M26.9,232c4.5,4.5,9.7,7.3,15.7,8.5,4.7.9,11.2.7,16.8.7,67.6,0,107.7,0,120.5,0,8.3,0,13.9-.3,16.5-1.1,10.6-3,19.1-11.4,22.2-22.1.7-2.5,1.1-6.6,1.1-12.4,0-45.7,0-70,0-72.7,0-3.7,1.4-6.5,4.1-8.2,3.2-2,7.7-1.7,10.5.7,2,1.8,3.1,4.1,3.1,7.1,0,10.1,0,36.4,0,78.9,0,7.3-1.9,14.5-5.8,21.6-7.9,14.6-22.4,24.2-39.1,25.7-1.2.1-6,.2-14.4.2-32.6,0-73.9,0-123.7,0-4.7,0-8.2-.1-10.3-.3-11.2-1.1-21.8-6.2-29.7-14.1-7.9-7.9-12.9-18.5-14.1-29.7-.2-2.1-.3-5.5-.3-10.3,0-49.9,0-91.1,0-123.7,0-8.3,0-13.1.2-14.4,1.5-16.6,11.1-31.1,25.7-39,7.1-3.8,14.3-5.8,21.6-5.8,42.5,0,68.8,0,78.9,0,2.9,0,5.3,1,7.1,3.1,2.5,2.8,2.7,7.3.7,10.5-1.7,2.8-4.4,4.1-8.2,4.1-2.8,0-27,0-72.7,0-5.7,0-9.9.3-12.4,1.1-10.7,3-19.1,11.6-22.1,22.2-.8,2.7-1.1,8.2-1.1,16.5,0,12.8,0,53,0,120.5,0,5.5-.3,12.1.7,16.8,1.2,6,4,11.3,8.5,15.7h0Z"/>
  <path class="st0" d="M234.4,77.4c-3.5,3.5-6.1,9.1-6.3,14.2,0,.3-.5.4-.6.1-.7-1.7-.9-4.9-1.8-7.1-3.3-7.9-9.5-12.4-18.6-13.5-.1,0-.3-.1-.3-.3s.1-.3.3-.3c5.1-.7,10.3-2.9,13.9-6.4,3.6-3.6,5.7-8.8,6.4-13.9,0-.1.1-.3.3-.3s.3.1.3.3c1.1,9,5.6,15.2,13.6,18.5,2.2.9,5.4,1.1,7.1,1.8.3.1.2.6-.1.6-5.1.2-10.7,2.8-14.2,6.3h0Z"/>
  <path class="st0" d="M102.6,85.4c8,0,12.3,0,12.9,0,.1,0,.2,0,.3.2l37.2,109.1c0,.3-.1.5-.4.5h-18.2c-.2,0-.4-.1-.5-.3l-8.9-26.1c-.1-.5-.6-.8-1.1-.8-3.1,0-10.2,0-21.3,0s-18.2,0-21.3,0c-.5,0-.9.3-1.1.8l-8.9,26.1c0,.2-.3.3-.5.3h-18.2c-.3,0-.5-.3-.4-.5l37.3-109.1c0-.1.1-.2.3-.2.6,0,4.9,0,12.9,0M86.7,149.6c0,.2,0,.3.2.3h31.2c.2,0,.3-.2.2-.3l-15.6-46.4c0-.2-.4-.2-.5,0l-15.6,46.4h0Z"/>
  <path class="st0" d="M185.4,194.6c0,.4-.3.7-.7.7h-16.7c-.4,0-.7-.3-.7-.7v-107.6c0-.4.3-.7.7-.7h16.7c.4,0,.7.3.7.7v107.6h0Z"/>
</svg>